# xmcd
#
# Track frame offsets:
#	150
#	24616
#	36219
#	52190
#	77430
#	96255
#	112125
#	128895
#	150622
#	171592
#	190972
#	204735
#	220552
#	237540
#	252989
#	279367
#	293700
#	320685
#
# Disc length: 4606 seconds
#
# Revision: 0
# Processed by: cddbd v1.5.1PL2 Copyright (c) Steve Scherf et al.
# Submitted via: audiograbber 1.81.02
#
DISCID=1111fc12
DTITLE=The Giants - Live and Acoustic at HWY 31
DYEAR=2006
DGENRE=Blues
TTITLE0=Black Magic Woman
TTITLE1=Looking at the World Through a Windscreen
TTITLE2=Hand Jive
TTITLE3=Reckless
TTITLE4=She Belongs to me
TTITLE5=Holy Cow
TTITLE6=Up on Cripple Creek
TTITLE7=Copperhead Road
TTITLE8=Crossroads
TTITLE9=Big Boss Man
TTITLE10=Bullfrog Blues
TTITLE11=Midnight Blues
TTITLE12=Midnight Special
TTITLE13=Route 66
TTITLE14=Mercury Blues
TTITLE15=Bright Lights, Big City
TTITLE16=Slippin Away
TTITLE17=I'll be Gone
EXTD=
EXTT0=
EXTT1=
EXTT2=
EXTT3=
EXTT4=
EXTT5=
EXTT6=
EXTT7=
EXTT8=
EXTT9=
EXTT10=
EXTT11=
EXTT12=
EXTT13=
EXTT14=
EXTT15=
EXTT16=
EXTT17=
PLAYORDER=
